
<svg version="1.0" xmlns="http://www.w3.org/2000/svg"
 width="500.000000pt" height="500.000000pt" viewBox="0 0 500.000000 500.000000"
 preserveAspectRatio="xMidYMid meet">

<g transform="translate(0.000000,500.000000) scale(0.100000,-0.100000)"
fill="#000000" stroke="none">
<path d="M3792 3910 c-96 -7 -106 -18 -98 -117 l6 -72 -33 -6 c-17 -3 -52 -6
-77 -7 l-45 -3 -3 -43 -3 -43 -290 5 c-160 2 -293 7 -296 10 -4 3 -5 37 -4 76
3 80 -6 89 -63 70 -39 -13 -73 -49 -83 -89 -3 -14 -11 -29 -17 -33 -13 -9
-229 -8 -271 1 -18 4 -38 19 -52 41 -12 19 -27 40 -32 47 -15 18 -89 27 -106
13 -23 -19 -29 -74 -11 -108 l15 -29 -122 -7 c-67 -4 -150 -9 -183 -12 l-62
-6 -4 42 c-2 24 1 44 7 45 5 2 22 6 38 9 32 7 37 44 10 71 -14 15 -31 16 -112
11 -53 -3 -240 -9 -417 -12 l-321 -7 -6 24 c-4 13 -7 43 -7 65 0 29 -5 44 -16
48 -9 3 -73 6 -143 6 -155 0 -166 -5 -166 -79 0 -50 -1 -51 -31 -51 -42 0 -54
-16 -54 -77 l0 -53 -124 0 c-69 0 -136 -4 -150 -10 -50 -18 -50 -26 -48 -455
2 -284 -2 -473 -13 -650 -13 -199 -14 -299 -7 -490 5 -132 9 -348 8 -480 -1
-132 0 -275 4 -318 5 -71 8 -81 34 -103 l28 -25 327 2 c382 1 996 -8 1336 -22
273 -11 214 -10 1360 -4 941 5 932 4 988 63 38 40 47 106 47 360 -1 117 2 217
5 222 3 5 8 100 11 212 5 194 12 291 34 478 5 47 10 146 10 220 0 74 5 186 10
248 6 62 11 188 11 280 2 276 -14 397 -55 430 -15 12 -22 29 -23 54 -1 67 -3
68 -98 68 l-85 0 0 90 c0 64 -4 92 -12 95 -20 6 -464 11 -546 5z m341 -27
l187 -6 0 -62 c0 -34 5 -66 12 -73 9 -9 -22 -12 -140 -12 l-152 0 0 24 c0 37
-19 42 -26 7 -6 -28 -10 -31 -44 -31 -21 0 -45 -3 -54 -6 -12 -5 -16 0 -16 19
0 43 -12 87 -22 81 -6 -4 -7 -27 -3 -55 l7 -49 -81 0 -81 0 0 49 c0 27 -3 56
-6 64 -3 9 4 25 15 36 24 24 75 26 404 14z m-3013 -58 c0 -25 -1 -48 -2 -52
-3 -6 -260 -5 -266 2 -7 6 -4 73 3 84 4 7 55 11 136 11 l129 0 0 -45z m1808
-106 c-6 -62 -16 -73 -53 -59 -26 10 -27 9 -21 -15 6 -24 4 -25 -36 -24 -42 0
-42 0 -20 16 12 8 22 22 22 30 0 29 32 75 63 88 48 21 50 19 45 -36z m-926 18
c11 -18 -1 -27 -34 -27 -21 0 -31 -6 -35 -20 -5 -19 -14 -20 -262 -20 -141 0
-299 -2 -351 -4 -52 -2 -188 -4 -302 -5 -138 -1 -208 -5 -208 -11 0 -11 1092
-6 1110 5 6 4 19 -25 20 -46 0 -9 -520 -22 -878 -22 -324 -1 -312 -4 -305 87
3 28 6 56 8 61 4 15 1227 17 1237 2z m368 3 c0 -5 11 -10 24 -10 18 0 29 -10
43 -37 21 -44 52 -62 108 -64 l40 -2 -45 -8 c-86 -15 -108 -12 -125 19 l-16
27 6 -27 c4 -21 1 -28 -9 -28 -37 0 -75 76 -61 120 6 20 35 29 35 10z m2126
-51 c7 -6 14 -25 16 -44 l4 -34 -58 -6 c-31 -4 -62 -4 -67 0 -6 3 -193 6 -415
6 l-404 0 -6 31 c-3 18 -3 35 1 39 25 24 901 31 929 8z m-3459 -133 c356 0
981 13 1118 22 144 9 1760 8 2117 -2 l277 -8 11 -47 c16 -68 19 -580 3 -627
-4 -12 -463 -12 -873 0 -181 6 -319 5 -436 -3 l-171 -12 -111 74 c-62 41 -145
89 -187 108 -41 19 -74 37 -75 42 0 7 226 3 410 -8 41 -2 145 -7 231 -11 l157
-7 16 26 c15 21 17 50 14 199 -3 111 -8 181 -16 195 -9 16 -25 23 -68 29 -75
9 -806 0 -825 -11 -32 -19 -116 -93 -158 -140 -25 -27 -80 -84 -123 -125 -49
-48 -78 -84 -78 -97 0 -17 -12 -25 -72 -43 -40 -12 -109 -39 -153 -60 l-80
-38 -175 -7 c-142 -6 -1318 -23 -1328 -19 -1 1 -4 130 -6 288 -3 335 -6 325
82 327 31 1 84 4 117 8 58 7 61 6 87 -24 l27 -30 268 1z m1618 -473 c140 -44
352 -180 479 -307 59 -60 83 -93 130 -187 69 -138 93 -241 102 -439 6 -125 4
-143 -20 -240 -42 -163 -158 -364 -301 -519 -47 -51 -165 -138 -269 -198 -111
-64 -160 -74 -371 -72 -195 1 -281 16 -374 63 -50 25 -171 114 -171 126 0 4
-18 19 -39 33 -87 58 -263 342 -321 517 -50 149 -48 364 3 515 50 147 118 261
230 390 110 126 223 215 327 259 25 10 65 27 90 37 25 11 69 24 99 29 30 6 57
12 59 15 12 11 299 -7 347 -22z m-765 -123 c-19 -17 -52 -39 -73 -49 -38 -19
-40 -19 -59 -1 -11 10 -17 23 -14 29 4 5 1 13 -6 18 -12 7 99 28 162 31 24 1
24 0 -10 -28z m-200 0 c-8 -5 -27 -10 -42 -10 -16 0 -28 -4 -28 -10 0 -5 -9
-14 -21 -20 -17 -10 -25 -7 -45 14 l-25 24 23 4 c57 9 153 7 138 -2z m-946
-29 c-8 -16 -24 -31 -36 -34 -18 -5 -19 -8 -8 -22 11 -13 10 -19 -8 -36 -25
-22 -28 -39 -10 -57 9 -9 7 -16 -7 -32 -10 -11 -13 -20 -8 -20 6 0 16 7 23 15
22 26 22 9 1 -26 -12 -19 -21 -37 -21 -41 0 -13 65 -9 78 4 13 13 14 10 16
-49 1 -39 -5 -40 -44 -11 -33 24 -45 20 -35 -11 4 -12 15 -21 27 -21 14 0 18
-5 14 -16 -4 -12 -2 -15 9 -10 21 8 29 -32 21 -105 -4 -36 -3 -59 3 -59 5 0
12 8 15 18 10 35 28 271 24 304 -3 18 1 58 9 88 9 32 12 75 9 103 l-5 48 323
-3 c305 -3 322 -4 312 -20 -6 -10 -15 -18 -19 -18 -15 0 5 -64 30 -98 13 -18
22 -40 20 -50 -4 -13 -5 -12 -6 4 0 12 -7 26 -13 32 -17 13 -128 41 -128 32 0
-4 -31 -11 -70 -14 -38 -4 -73 -13 -77 -19 -4 -7 -8 -45 -9 -85 -2 -69 -1 -74
22 -84 30 -14 31 -30 2 -26 -11 2 -23 -3 -26 -10 -3 -11 6 -12 42 -7 37 6 47
4 52 -9 10 -25 22 -19 16 9 -4 25 -4 25 69 24 72 0 73 -1 39 -13 -39 -14 -49
-43 -13 -38 12 2 31 -1 41 -7 13 -7 27 -6 47 5 31 16 49 7 39 -20 -4 -11 -14
-16 -26 -13 -12 4 -22 -2 -30 -16 -10 -19 -9 -20 4 -9 10 8 19 9 22 3 4 -5 0
-13 -7 -18 -19 -11 -68 -103 -61 -114 3 -5 -1 -9 -8 -9 -20 0 -25 -78 -15
-214 4 -44 3 -84 -2 -90 -16 -21 -30 -75 -20 -81 12 -8 12 -45 -1 -45 -5 0
-10 -9 -10 -20 0 -11 -4 -20 -10 -20 -5 0 -10 4 -10 10 0 5 -10 8 -22 6 -13
-3 -26 -5 -30 -5 -5 -1 -8 -7 -8 -15 0 -13 28 -29 53 -31 11 0 27 -28 21 -37
-3 -5 -10 -6 -15 -3 -5 4 -9 0 -9 -9 0 -8 13 -17 28 -21 24 -5 29 -11 29 -37
0 -17 7 -36 16 -43 13 -9 14 -15 4 -36 -10 -19 -19 -23 -42 -21 -27 2 -28 1
-12 -11 9 -8 17 -23 17 -33 0 -24 10 -39 33 -47 13 -5 16 -14 12 -37 -3 -16
-1 -30 4 -30 5 0 9 -16 9 -36 0 -23 7 -42 21 -55 26 -24 30 -24 24 1 -4 14 0
20 12 20 12 0 16 -7 13 -27 -2 -22 1 -28 16 -28 25 0 45 -30 29 -46 -8 -8 -17
-7 -34 4 -37 23 -89 30 -89 12 0 -8 7 -15 15 -15 8 0 15 -4 15 -9 0 -13 -69
-24 -83 -13 -20 15 -56 21 -60 9 -5 -15 -37 -1 -37 17 0 9 7 12 20 9 14 -4 20
0 20 11 0 9 -3 16 -8 16 -16 0 -52 -32 -52 -46 0 -20 -17 -17 -33 7 -9 13 -17
16 -22 10 -3 -6 -17 -11 -31 -11 -14 0 -22 -4 -19 -10 12 -19 -7 -10 -26 13
-10 12 -18 17 -19 10 0 -6 6 -14 13 -17 6 -4 2 -4 -10 -2 -27 5 -30 -9 -5 -23
9 -6 12 -11 7 -11 -6 0 -15 4 -20 9 -20 18 -61 20 -83 5 -20 -14 -144 -19
-166 -6 -4 2 -52 4 -105 3 l-96 -1 29 24 c29 24 28 46 -3 46 -14 0 -16 7 -13
35 3 21 0 35 -7 35 -7 0 -8 8 -1 25 5 14 9 62 7 105 -2 79 -2 80 -34 95 -18 9
-33 21 -33 28 0 6 -7 2 -14 -9 -8 -12 -15 -30 -14 -40 0 -10 -3 -45 -7 -77 -7
-51 -6 -57 9 -51 11 4 16 1 16 -10 0 -9 5 -16 11 -16 8 0 10 16 7 48 -6 54 -2
72 18 72 9 0 13 -8 10 -22 -2 -13 4 -34 13 -47 12 -18 12 -26 3 -29 -7 -2 -10
-13 -6 -28 4 -15 2 -24 -5 -24 -6 0 -11 -7 -11 -15 0 -8 -8 -15 -18 -15 -23 0
-42 -19 -42 -41 0 -30 -22 -34 -43 -8 l-20 24 5 -35 c5 -31 -14 -71 -28 -58
-4 4 -18 792 -17 963 0 33 6 143 14 245 8 102 13 242 12 311 l-2 126 149 1
148 2 -14 -29z m974 -49 c-3 -29 -37 -67 -49 -55 -4 5 -10 18 -14 31 -5 16 -2
22 9 22 8 0 20 9 26 20 14 27 32 15 28 -18z m-928 13 c0 -8 -4 -15 -10 -15 -5
0 -10 7 -10 15 0 8 5 15 10 15 6 0 10 -7 10 -15z m760 -16 c0 -11 19 -9 67 7
15 5 15 4 3 -5 -8 -6 -10 -11 -4 -11 7 0 19 -12 29 -26 13 -20 14 -28 4 -40
-7 -8 -18 -13 -25 -10 -7 3 -18 -2 -24 -10 -7 -8 -9 -14 -4 -14 5 0 1 -5 -8
-11 -10 -5 -18 -17 -18 -24 0 -8 -7 -15 -15 -15 -18 0 -20 -16 -2 -24 12 -6 4
-13 -20 -19 -3 -1 -8 31 -9 72 -2 53 -8 79 -20 92 -13 15 -15 22 -6 31 9 9 12
9 12 -2 1 -11 3 -11 11 3 11 19 29 23 29 6z m2280 -33 c23 -11 37 -13 45 -6 7
6 26 11 41 11 16 0 119 0 229 0 110 -1 248 1 307 2 l106 3 -4 -150 c-4 -141
-43 -493 -52 -468 -2 7 -11 12 -19 12 -10 0 -13 -6 -9 -16 3 -9 6 -23 6 -31 0
-13 3 -13 15 -3 13 11 15 8 14 -16 0 -16 -4 -49 -8 -74 -7 -35 -9 -38 -10 -15
-1 27 -2 28 -18 12 -21 -21 -27 -97 -7 -97 8 0 14 -6 15 -12 1 -7 5 -2 10 12
5 15 6 -45 1 -145 -4 -93 -7 -245 -7 -337 0 -223 29 -204 -295 -195 -85 3
-185 5 -221 6 l-67 1 -7 55 c-4 35 -10 53 -17 49 -6 -4 -8 -25 -5 -53 l5 -46
-404 -1 c-222 0 -404 3 -404 8 0 4 7 16 16 26 8 9 45 57 82 106 66 87 88 96
64 26 -9 -24 -7 -34 9 -55 24 -29 35 -31 42 -7 4 9 13 35 21 56 22 60 1 122
-35 100 -16 -9 -10 7 19 55 104 172 129 321 102 601 -14 146 -32 215 -81 315
-66 135 -87 167 -146 228 l-58 58 178 -2 c161 -3 204 -9 162 -25 -25 -10 -17
-25 10 -18 30 8 34 -14 7 -39 -14 -13 -21 -14 -30 -5 -7 7 -12 18 -12 25 0 7
-4 13 -10 13 -13 0 -32 -38 -25 -50 3 -6 -1 -10 -9 -10 -24 0 -19 -15 9 -28
14 -6 25 -7 25 -3 0 12 50 37 91 46 21 5 27 10 19 15 -8 5 -9 13 -4 21 5 8 9
23 9 34 0 28 38 35 166 31 73 -2 117 -9 139 -20z m-3050 -31 c0 -8 -4 -15 -10
-15 -5 0 -10 7 -10 15 0 8 5 15 10 15 6 0 10 -7 10 -15z m657 -28 c3 -4 2 -35
-3 -69 -8 -56 -12 -63 -34 -66 -45 -7 -188 9 -193 21 -2 7 -2 37 1 68 l4 57
109 -3 c60 -1 112 -5 116 -8z m-667 -57 c0 -19 -5 -30 -14 -30 -19 0 -29 30
-15 46 18 22 29 16 29 -16z m730 -971 c0 -6 -4 -7 -10 -4 -5 3 -10 11 -10 16
0 6 5 7 10 4 6 -3 10 -11 10 -16z m-935 -440 c0 -9 -11 -14 -29 -14 -36 0 -46
22 -14 28 32 6 43 3 43 -14z m924 -8 c7 -5 9 -11 4 -14 -6 -4 -19 0 -29 8 -15
11 -16 14 -4 15 8 0 21 -4 29 -9z m2991 -90 c-12 -47 -53 -80 -108 -89 -20 -3
-197 -6 -392 -8 -195 -1 -506 -4 -690 -7 -184 -2 -388 -2 -453 1 l-118 5 58
31 c32 17 97 59 145 92 l88 61 417 -3 c569 -5 814 -11 845 -23 14 -5 28 -8 30
-5 3 2 34 7 69 10 35 3 75 11 89 17 23 12 25 11 28 -15 2 -14 -2 -45 -8 -67z
m-3285 79 c3 -5 -1 -10 -10 -10 -9 0 -13 5 -10 10 3 6 8 10 10 10 2 0 7 -4 10
-10z m-235 -50 c206 -5 443 -6 525 -3 83 2 189 1 236 -4 64 -6 94 -5 117 4 29
12 34 10 74 -22 24 -19 64 -47 90 -62 52 -30 63 -49 23 -39 -32 8 -643 17
-1154 16 l-390 0 -16 29 c-8 17 -15 46 -15 65 l0 35 68 -5 c37 -2 236 -9 442
-14z"/>
<path d="M2391 3684 c0 -11 3 -14 6 -6 3 7 2 16 -1 19 -3 4 -6 -2 -5 -13z"/>
<path d="M3704 3465 c-30 -13 -32 -18 -44 -99 -12 -81 -10 -232 5 -268 4 -9
14 -20 23 -24 9 -4 177 -9 373 -11 337 -3 357 -2 373 16 14 15 17 45 19 182 1
112 -2 173 -10 192 l-13 27 -347 -1 c-272 0 -355 -4 -379 -14z m409 -31 c38
-7 51 -29 22 -40 -18 -7 -20 -30 -2 -37 11 -5 -17 -11 -35 -8 -11 1 -10 -2 8
-37 16 -33 28 -40 39 -22 10 16 45 12 45 -5 0 -8 8 -15 19 -15 13 0 20 -10 25
-31 9 -47 7 -59 -9 -59 -10 0 -15 -10 -15 -34 l0 -34 -58 -4 c-96 -7 -202 2
-202 18 0 7 -8 17 -17 22 -16 9 -16 11 0 36 9 14 17 38 17 55 0 16 6 31 14 34
8 3 17 24 21 47 4 24 15 46 26 53 11 7 19 23 19 39 0 31 11 33 83 22z m-188
-224 c3 -5 1 -10 -4 -10 -6 0 -11 5 -11 10 0 6 2 10 4 10 3 0 8 -4 11 -10z
m365 -75 c0 -19 -13 -25 -38 -18 -16 4 -19 9 -13 17 14 17 51 17 51 1z"/>
<path d="M2490 2996 c-3 -2 -46 -7 -95 -11 -140 -9 -247 -42 -401 -122 -74
-39 -190 -139 -246 -213 -41 -54 -105 -191 -135 -287 -24 -78 -27 -105 -27
-233 -1 -150 2 -165 57 -325 40 -118 97 -214 201 -341 28 -34 170 -134 251
-177 73 -39 157 -57 262 -57 85 0 220 20 268 40 11 5 52 22 90 38 89 36 226
134 289 207 87 101 126 154 126 172 0 10 7 28 15 40 33 47 90 266 100 384 13
147 -19 293 -100 465 -49 104 -63 125 -133 193 -67 65 -97 86 -213 143 -110
55 -145 68 -199 73 -36 3 -74 8 -85 11 -11 3 -23 3 -25 0z m-161 -77 c28 16
33 14 21 -9 -9 -16 -8 -20 5 -20 8 0 15 -4 15 -10 0 -5 16 -10 35 -10 19 0 35
5 35 10 0 17 36 11 55 -10 17 -18 20 -19 41 -5 30 19 44 19 44 -1 0 -12 7 -14
29 -9 17 3 32 2 36 -4 3 -6 12 -11 18 -11 7 0 6 4 -3 10 -13 8 -13 10 2 10 9
0 19 6 21 13 4 7 8 3 12 -10 4 -13 13 -23 20 -23 8 0 15 10 17 23 4 31 19 27
43 -11 18 -28 24 -32 52 -27 28 5 32 3 26 -12 -5 -15 -3 -16 7 -6 11 10 20 8
46 -12 18 -14 37 -25 41 -25 16 0 71 -80 93 -135 15 -37 26 -52 36 -48 14 5
18 -6 14 -42 -2 -16 1 -17 13 -7 12 10 16 10 21 -3 3 -8 1 -15 -4 -15 -6 0
-10 -5 -10 -11 0 -6 7 -8 17 -5 10 4 14 4 10 0 -4 -4 -1 -14 6 -23 43 -52 82
-244 72 -350 -6 -55 -25 -156 -50 -268 -6 -27 -30 -30 -44 -5 -9 15 -10 14
-11 -7 0 -14 -7 -33 -16 -42 -16 -17 -15 -19 10 -28 23 -10 25 -13 14 -36 -8
-19 -14 -22 -20 -13 -6 8 -7 5 -3 -10 5 -16 -2 -32 -24 -59 -17 -21 -31 -42
-31 -48 0 -18 -40 -56 -51 -49 -6 3 -9 0 -7 -7 3 -16 -30 -69 -43 -69 -5 0 -6
7 -2 16 4 12 2 15 -8 12 -8 -3 -14 -14 -14 -26 0 -30 -19 -28 -23 1 -2 15 7
36 22 54 16 19 22 34 16 43 -5 8 -3 25 6 41 8 16 14 36 14 45 0 14 -2 15 -17
3 -17 -13 -17 -12 -2 6 9 11 28 44 41 72 14 29 29 49 33 45 5 -4 5 -2 2 4 -4
7 11 54 32 106 49 117 55 151 42 219 -6 30 -16 77 -21 104 -10 48 -72 206 -91
229 -49 61 -59 75 -59 82 0 16 -101 100 -154 128 -31 16 -64 37 -75 48 -11 10
-26 18 -34 18 -7 0 -17 4 -22 8 -24 20 -112 33 -156 23 -24 -6 -63 -11 -86
-11 -24 0 -83 -13 -133 -29 l-90 -29 -16 39 c-11 23 -25 39 -37 41 -11 2 -25
11 -31 20 -8 14 -4 23 22 49 17 17 32 27 32 23 0 -5 5 -2 10 6 6 10 27 15 60
16 33 1 57 7 68 17 11 12 19 13 28 6 9 -7 19 -7 33 0z m-282 -114 c-4 -8 -11
-15 -17 -15 -7 0 -7 6 0 21 13 23 26 19 17 -6z m68 -94 c-4 -13 -1 -20 10 -23
10 -2 -5 -18 -45 -47 -59 -43 -113 -96 -158 -156 l-22 -30 6 30 c9 49 23 70
55 84 16 7 28 18 26 24 -1 5 7 20 20 33 13 13 20 29 17 38 -7 18 21 23 31 6 9
-14 26 -12 23 3 -2 6 6 22 17 34 25 27 28 28 20 4z m-170 -45 c-36 -36 -45
-33 -10 4 16 16 30 28 32 26 2 -2 -8 -16 -22 -30z m61 -13 c-4 -4 -11 -1 -16
7 -16 25 -11 35 7 17 9 -9 13 -20 9 -24z m1075 -40 c13 -16 12 -17 -3 -4 -17
13 -22 21 -14 21 2 0 10 -8 17 -17z m-1197 -18 c-4 -8 -10 -12 -15 -9 -11 6
-2 24 11 24 5 0 7 -7 4 -15z m36 -15 c0 -5 -4 -10 -10 -10 -5 0 -10 5 -10 10
0 6 5 10 10 10 6 0 10 -4 10 -10z m-34 -31 c3 -6 2 -15 -4 -21 -7 -7 -14 -3
-21 11 -10 17 -9 21 3 21 8 0 18 -5 22 -11z m-57 -15 c4 3 13 0 21 -5 12 -8
12 -12 3 -16 -7 -2 -13 -13 -13 -23 0 -10 -9 -22 -21 -25 -14 -5 -19 -14 -17
-31 2 -17 -6 -32 -26 -49 -20 -17 -26 -29 -19 -36 13 -13 43 -1 43 17 0 8 5
14 10 14 6 0 15 10 20 23 7 17 9 18 9 5 1 -20 21 -25 21 -6 0 6 3 9 6 5 7 -7
-24 -106 -38 -124 -6 -7 -11 -27 -13 -45 -1 -18 -7 -56 -13 -85 -18 -85 -17
-230 2 -295 10 -32 15 -62 11 -68 -3 -5 -2 -10 3 -10 4 0 21 -30 36 -67 15
-38 37 -78 49 -91 l21 -22 -21 -19 c-12 -11 -24 -17 -27 -14 -11 11 -6 23 9
23 8 0 15 5 15 10 0 6 -4 10 -10 10 -5 0 -10 6 -10 13 0 6 -4 19 -10 27 -8 12
-11 12 -27 -3 -33 -29 -59 -11 -100 68 -20 41 -40 72 -44 70 -3 -3 -11 8 -18
23 -11 25 -10 26 4 8 12 -16 15 -17 15 -4 0 29 -12 48 -29 48 -41 0 -79 289
-43 332 9 11 9 17 2 20 -7 2 -9 18 -4 46 4 28 11 41 19 38 7 -2 19 4 29 15 20
24 20 29 0 29 -11 0 -14 8 -10 33 6 45 6 45 17 17 8 -19 12 -21 18 -11 5 7 13
11 19 7 6 -3 17 3 26 15 9 13 21 19 30 16 18 -7 22 8 6 18 -15 9 -3 58 17 73
10 7 17 21 16 30 -1 10 0 11 3 4 3 -6 9 -10 13 -8z m-129 -64 c0 -5 -5 -10
-11 -10 -5 0 -7 5 -4 10 3 6 8 10 11 10 2 0 4 -4 4 -10z m1165 -11 c11 -17 -1
-21 -15 -4 -8 9 -8 15 -2 15 6 0 14 -5 17 -11z m-981 -5 c9 -3 13 -10 10 -15
-8 -14 -21 -11 -28 6 -6 17 -4 18 18 9z m1042 -196 c24 -73 26 -91 21 -177 -6
-107 -18 -151 -43 -151 -13 0 -15 6 -9 27 11 45 11 48 -3 45 -28 -5 -50 16
-44 44 3 16 1 25 -5 21 -5 -3 -9 8 -8 26 2 19 7 31 15 29 6 -1 10 3 8 10 -3 7
-13 13 -24 14 -10 0 -30 5 -44 11 -14 6 -28 9 -32 6 -21 -12 -4 39 22 67 17
18 30 42 30 55 0 14 7 25 20 28 11 3 20 13 20 24 -1 17 -1 17 -14 1 -16 -22
-26 -23 -26 -4 0 8 -6 17 -12 19 -13 5 25 11 50 8 6 -1 12 4 12 11 1 30 40
-38 66 -114z m-940 9 c18 7 20 -33 2 -40 -10 -4 -9 -8 2 -16 11 -8 20 -5 34 9
18 18 20 18 34 2 13 -16 13 -16 8 2 -5 15 -2 17 18 12 15 -4 26 -1 28 6 7 20
27 -2 34 -37 4 -22 18 -44 40 -62 21 -17 34 -35 34 -50 0 -13 7 -37 15 -54 9
-16 13 -34 10 -40 -4 -5 -2 -16 4 -23 7 -8 7 -24 0 -50 -6 -21 -8 -43 -6 -50
3 -6 -2 -21 -10 -31 -14 -20 -14 -20 -32 4 l-18 23 -13 -31 c-22 -54 -38 -33
-43 54 -2 34 -5 40 -27 43 -14 2 -30 10 -37 19 -6 8 -15 13 -20 10 -4 -2 -18
-1 -31 4 -18 7 -22 14 -17 29 4 11 2 20 -4 20 -6 0 -11 -21 -12 -47 -1 -59 -3
-71 -23 -107 l-15 -30 -11 30 c-29 76 -30 273 -1 347 30 74 34 82 38 65 3 -10
10 -15 19 -11z m1014 -134 c0 -20 -3 -24 -11 -16 -7 7 -9 19 -6 27 10 24 17
19 17 -11z m-200 3 c0 -3 -4 -8 -10 -11 -5 -3 -10 -1 -10 4 0 6 5 11 10 11 6
0 10 -2 10 -4z m-10 -68 c0 -17 -18 -44 -24 -37 -8 7 5 49 15 49 5 0 9 -6 9
-12z m350 -258 c0 -5 -2 -10 -4 -10 -3 0 -8 5 -11 10 -3 6 -1 10 4 10 6 0 11
-4 11 -10z m-1295 -200 c3 -5 1 -10 -4 -10 -6 0 -11 5 -11 10 0 6 2 10 4 10 3
0 8 -4 11 -10z m1070 -40 c3 -5 -3 -10 -15 -10 -12 0 -18 5 -15 10 3 6 10 10
15 10 5 0 12 -4 15 -10z m-131 -175 c-4 -8 -12 -15 -20 -15 -17 0 -18 17 -1
23 22 9 27 7 21 -8z m-94 -25 c0 -5 -5 -10 -11 -10 -5 0 -7 5 -4 10 3 6 8 10
11 10 2 0 4 -4 4 -10z m30 0 c0 -5 -4 -10 -10 -10 -5 0 -10 5 -10 10 0 6 5 10
10 10 6 0 10 -4 10 -10z"/>
<path d="M2232 2873 c-13 -3 -21 -10 -19 -16 6 -20 31 -18 45 3 7 11 9 19 5
19 -5 -1 -18 -4 -31 -6z"/>
<path d="M2530 2835 c0 -9 6 -12 15 -9 8 4 12 10 9 15 -8 14 -24 10 -24 -6z"/>
<path d="M2160 2826 c0 -17 14 -29 23 -20 8 8 -3 34 -14 34 -5 0 -9 -6 -9 -14z"/>
<path d="M2352 2793 c2 -10 10 -18 18 -18 22 0 18 29 -3 33 -14 3 -18 -1 -15
-15z"/>
<path d="M3138 2424 c3 -34 2 -45 -6 -40 -8 5 -10 1 -6 -9 6 -14 8 -14 20 2
17 23 17 53 0 76 -12 15 -13 12 -8 -29z"/>
<path d="M3146 2304 c-4 -19 -4 -44 -1 -54 4 -12 2 -20 -5 -20 -18 0 -8 -129
11 -140 11 -7 15 -3 17 20 2 15 10 34 18 40 17 15 19 40 3 40 -6 0 -9 9 -6 20
3 11 1 20 -4 20 -5 0 -9 22 -9 49 0 60 -15 75 -24 25z"/>
<path d="M1755 2290 c3 -5 8 -10 11 -10 2 0 4 5 4 10 0 6 -5 10 -11 10 -5 0
-7 -4 -4 -10z"/>
<path d="M1116 2921 c-3 -5 6 -8 20 -8 19 0 22 2 13 8 -18 11 -26 11 -33 0z"/>
<path d="M1226 2901 c-3 -5 3 -11 14 -14 14 -3 18 -10 14 -22 -4 -9 -13 -14
-20 -11 -8 3 -14 -1 -14 -9 0 -22 13 -18 40 10 19 20 21 27 10 40 -14 17 -36
20 -44 6z"/>
<path d="M544 2886 c-3 -8 -4 -21 -1 -28 4 -8 6 -7 6 4 1 12 6 15 17 11 11 -4
15 -2 12 7 -6 20 -27 24 -34 6z"/>
<path d="M983 2873 c-19 -7 -16 -83 3 -98 15 -10 15 -13 0 -27 -19 -20 -20
-34 -3 -42 10 -5 10 -7 0 -12 -8 -3 -13 -23 -12 -47 1 -23 3 -34 6 -24 2 9 9
17 14 17 15 0 10 -28 -6 -38 -13 -7 -14 -14 -5 -36 13 -35 13 -79 0 -71 -5 3
-10 1 -10 -4 0 -6 5 -11 11 -11 9 0 10 -20 5 -69 -3 -39 -2 -72 2 -75 11 -7 5
-78 -7 -85 -5 -4 -8 -33 -7 -66 2 -33 4 -77 4 -98 1 -25 6 -36 13 -31 6 3 9
17 6 30 -2 14 1 24 7 24 14 0 14 -128 0 -153 -9 -17 -11 -15 -12 13 0 18 -4
35 -7 38 -11 11 -25 -22 -23 -53 2 -21 -1 -30 -12 -30 -9 0 -16 11 -18 30 -11
128 -28 156 -27 45 0 -46 4 -71 13 -75 27 -10 11 -40 -19 -37 -4 1 -9 -8 -12
-19 -4 -16 0 -23 15 -27 18 -4 20 -11 16 -71 -3 -65 -2 -66 22 -66 18 0 26 6
28 23 3 19 9 23 35 20 l32 -3 1 -63 c1 -35 4 -65 7 -68 3 -3 15 0 27 6 16 8
19 17 14 33 -4 12 -6 37 -5 56 1 18 -2 38 -7 45 -5 6 -10 38 -11 71 -1 33 -2
71 -4 84 -1 13 4 26 11 28 7 3 12 1 11 -4 -1 -4 0 -15 4 -23 8 -20 19 -122 21
-192 1 -31 5 -60 8 -64 4 -4 5 -18 1 -32 -4 -18 -2 -23 8 -20 8 3 22 1 32 -4
14 -7 25 -4 43 13 13 12 25 21 27 18 1 -2 9 -17 17 -32 14 -28 14 -28 22 -6 5
13 5 25 -1 28 -5 3 -12 24 -16 46 -4 22 -17 50 -29 63 -11 13 -20 25 -18 28 1
2 2 5 1 7 -1 4 -1 82 0 105 0 12 7 22 16 22 8 0 15 5 15 11 0 6 -9 8 -20 4
-22 -7 -26 5 -8 23 9 9 9 12 1 12 -8 0 -11 18 -11 50 1 36 5 50 16 50 9 0 12
6 8 16 -3 9 -6 21 -6 27 0 7 -7 4 -14 -6 -12 -16 -14 -16 -20 -1 -3 8 -6 29
-6 46 0 23 -4 29 -15 24 -11 -4 -19 3 -25 20 -14 36 -12 42 6 19 13 -17 16
-18 24 -5 5 8 7 24 3 35 -3 11 -7 65 -8 120 -3 129 -2 125 -25 125 -13 0 -20
-7 -20 -20 0 -43 -19 -17 -25 35 -5 35 -12 54 -19 52 -7 -3 -10 -36 -8 -103 2
-73 0 -95 -8 -82 -10 16 -17 66 -25 178 -4 59 -7 272 -4 285 5 18 -26 72 -38
68z m147 -536 c0 -5 -4 -5 -10 -2 -5 3 -10 14 -10 23 0 15 2 15 10 2 5 -8 10
-19 10 -23z m-64 -84 c-2 -38 -1 -87 3 -110 10 -51 -8 -152 -26 -146 -15 5
-18 275 -3 303 21 40 31 21 26 -47z m-56 -87 c0 -8 -4 -18 -10 -21 -5 -3 -10
-4 -10 -1 0 2 -3 11 -6 20 -4 11 -1 16 10 16 9 0 16 -6 16 -14z m-40 -398 c0
-5 -7 -8 -15 -8 -15 0 -20 21 -8 33 7 7 23 -11 23 -25z m260 -109 c0 -5 -7 -9
-15 -9 -15 0 -20 12 -9 23 8 8 24 -1 24 -14z"/>
<path d="M576 2853 c-3 -4 -6 -15 -6 -25 0 -10 -4 -18 -10 -18 -5 0 -10 -12
-10 -27 0 -23 -2 -25 -11 -13 -7 11 -9 -11 -5 -74 3 -49 10 -94 16 -100 7 -7
10 -6 10 2 0 7 7 12 15 12 10 0 15 -10 15 -30 0 -23 -4 -30 -20 -30 -11 0 -20
-7 -20 -16 0 -8 5 -12 10 -9 7 4 9 -2 5 -18 -5 -17 -2 -26 10 -31 10 -3 15
-12 12 -20 -3 -8 -1 -17 6 -20 8 -3 6 -8 -6 -16 -9 -6 -15 -16 -11 -21 3 -5 2
-9 -3 -8 -20 3 -23 -2 -9 -17 20 -20 21 -38 1 -30 -10 4 -15 -1 -15 -14 0 -11
5 -20 11 -20 8 0 7 -5 -2 -16 -12 -14 -14 -14 -20 3 -5 12 -8 4 -10 -27 -4
-76 1 -94 33 -123 18 -17 27 -32 21 -35 -5 -4 -10 -24 -11 -46 -1 -31 1 -36
12 -27 8 7 12 21 9 32 -3 12 1 25 10 32 14 10 15 28 9 127 -4 63 -5 165 -2
225 3 61 3 115 0 120 -3 6 -3 64 0 130 5 103 3 122 -11 137 -9 9 -20 14 -23
11z m-16 -629 c0 -8 -4 -12 -10 -9 -5 3 -10 10 -10 16 0 5 5 9 10 9 6 0 10 -7
10 -16z"/>
<path d="M1157 2747 c-11 -29 -9 -53 4 -40 6 6 9 21 7 34 -3 21 -4 22 -11 6z"/>
<path d="M1330 2452 c-28 -4 -50 -19 -50 -34 0 -5 9 -7 19 -3 15 4 21 -1 30
-25 7 -22 16 -30 28 -28 14 3 17 12 15 43 -4 47 -9 52 -42 47z"/>
<path d="M825 2141 c-3 -5 -1 -12 5 -16 5 -3 10 1 10 9 0 18 -6 21 -15 7z"/>
<path d="M530 2121 c0 -6 4 -13 10 -16 6 -3 7 1 4 9 -7 18 -14 21 -14 7z"/>
<path d="M819 2093 c-1 -10 -1 -24 0 -31 1 -8 -7 -16 -18 -19 -27 -7 -27 -23
-1 -23 20 0 27 -20 13 -34 -4 -4 -8 -15 -8 -24 0 -9 -5 -16 -12 -15 -24 5 -35
-95 -14 -121 7 -8 14 -37 15 -64 2 -28 6 -54 8 -59 3 -4 6 -28 7 -53 1 -25 4
-54 8 -65 5 -17 4 -18 -10 -7 -9 8 -17 23 -19 34 -2 12 -9 24 -17 26 -10 3
-12 0 -8 -12 4 -10 8 -39 8 -64 1 -26 3 -40 6 -30 7 28 33 30 43 4 5 -13 14
-27 20 -31 12 -7 3 130 -11 157 -5 9 -6 24 -3 32 11 28 -6 146 -21 146 -17 0
-28 31 -15 44 7 7 10 4 10 -9 0 -17 2 -17 15 -5 10 11 15 46 18 128 2 61 0
112 -5 112 -4 0 -9 -8 -9 -17z"/>
<path d="M1330 2083 c1 -20 16 -31 30 -22 13 8 13 10 0 19 -18 12 -30 13 -30
3z"/>
<path d="M785 2070 c-3 -5 -1 -10 4 -10 6 0 11 5 11 10 0 6 -2 10 -4 10 -3 0
-8 -4 -11 -10z"/>
<path d="M570 1979 c0 -11 5 -17 10 -14 6 3 10 13 10 21 0 8 -4 14 -10 14 -5
0 -10 -9 -10 -21z"/>
<path d="M570 1853 c0 -13 5 -23 10 -23 13 0 13 11 0 30 -8 12 -10 11 -10 -7z"/>
<path d="M469 1724 c-4 -12 -4 -45 -1 -75 5 -48 6 -50 12 -23 8 38 -3 130 -11
98z"/>
<path d="M754 1720 c3 -14 6 -33 6 -43 0 -11 5 -17 13 -14 15 5 10 34 -10 62
-15 20 -15 19 -9 -5z"/>
<path d="M1300 1646 c0 -2 7 -9 15 -16 13 -11 14 -10 9 4 -5 14 -24 23 -24 12z"/>
<path d="M470 1568 c0 -16 5 -28 10 -28 13 0 13 20 0 40 -8 12 -10 9 -10 -12z"/>
<path d="M1040 1520 c0 -5 5 -10 11 -10 5 0 7 5 4 10 -3 6 -8 10 -11 10 -2 0
-4 -4 -4 -10z"/>
<path d="M510 1469 c0 -38 24 -35 28 4 2 19 -1 27 -12 27 -11 0 -16 -10 -16
-31z"/>
<path d="M720 1370 c0 -5 5 -10 10 -10 6 0 10 5 10 10 0 6 -4 10 -10 10 -5 0
-10 -4 -10 -10z"/>
<path d="M1341 1353 c7 -10 14 -19 15 -21 1 -2 13 2 25 9 23 12 23 12 4 20
-11 4 -28 8 -39 8 -16 1 -17 -1 -5 -16z"/>
<path d="M820 1341 c0 -11 5 -23 10 -26 6 -3 10 1 10 9 0 9 0 19 1 23 0 4 -4
9 -10 11 -6 2 -11 -5 -11 -17z"/>
<path d="M740 1336 c0 -8 5 -18 10 -21 6 -3 10 3 10 14 0 12 -4 21 -10 21 -5
0 -10 -6 -10 -14z"/>
<path d="M895 1320 c-3 -6 2 -13 11 -17 10 -4 19 -2 22 5 2 7 8 10 13 6 5 -3
9 0 9 5 0 14 -47 14 -55 1z"/>
<path d="M4113 2810 c1 -11 5 -20 9 -20 11 0 10 28 -1 35 -6 3 -9 -4 -8 -15z"/>
<path d="M3570 2740 c-8 -5 -12 -12 -9 -15 4 -3 12 1 19 10 14 17 11 19 -10 5z"/>
<path d="M3839 2733 c-12 -3 -15 -16 -14 -56 1 -29 7 -63 14 -75 7 -13 8 -22
2 -22 -12 0 -17 -18 -26 -85 -6 -45 -5 -48 8 -31 14 19 15 19 21 -2 7 -22 26
-31 26 -11 0 5 5 7 10 4 16 -10 12 7 -7 27 -14 16 -15 18 0 18 23 0 31 18 16
36 -9 11 -9 18 -2 22 6 4 10 44 10 95 0 93 -2 95 -58 80z"/>
<path d="M4078 2674 c-5 -4 -8 -18 -8 -31 0 -12 -4 -23 -10 -23 -5 0 -8 -18
-6 -40 3 -29 0 -43 -12 -49 -8 -5 -16 -23 -16 -42 -1 -19 -6 -40 -10 -48 -8
-13 -10 -139 -5 -396 1 -44 -1 -106 -6 -137 -5 -38 -4 -58 3 -58 6 0 8 -16 5
-40 -3 -22 -2 -40 3 -40 16 0 14 -58 -1 -64 -8 -3 -15 -18 -15 -33 0 -26 1
-26 15 -7 14 19 15 19 21 -3 3 -13 9 -23 13 -23 16 1 40 29 46 52 5 21 2 27
-14 33 -12 3 -21 13 -21 21 0 18 24 44 39 44 15 0 14 27 -1 32 -8 3 -7 13 5
37 13 25 14 37 5 56 -8 18 -8 28 1 39 9 10 9 16 1 21 -6 4 -8 14 -6 23 3 10 8
49 12 87 3 39 9 102 14 140 4 39 5 74 2 79 -10 17 -11 76 -2 76 5 0 7 13 4 30
-5 21 -2 31 9 35 24 10 22 133 -2 163 -11 12 -26 22 -34 22 -9 0 -17 11 -19
26 -2 14 -6 22 -10 18z"/>
<path d="M3557 2492 c-22 -24 -24 -134 -3 -151 18 -15 122 -3 137 16 14 16 6
118 -12 139 -17 21 -102 19 -122 -4z m108 -46 c13 -64 5 -80 -43 -87 -23 -3
-44 -3 -47 -1 -3 3 -5 32 -5 64 l0 58 45 0 c42 0 44 -1 50 -34z"/>
<path d="M3792 2345 c-27 -28 -22 -65 8 -65 20 0 32 42 21 71 -5 16 -8 16 -29
-6z"/>
<path d="M3510 2346 c0 -8 5 -18 10 -21 6 -3 10 1 10 9 0 8 -4 18 -10 21 -5 3
-10 -1 -10 -9z"/>
<path d="M3634 2239 c-3 -6 -1 -16 5 -22 8 -8 11 -5 11 11 0 24 -5 28 -16 11z"/>
<path d="M4470 2151 c0 -5 5 -13 10 -16 6 -3 10 -2 10 4 0 5 -4 13 -10 16 -5
3 -10 2 -10 -4z"/>
<path d="M3779 2125 c-1 -16 -3 -37 -4 -45 0 -8 -4 -21 -8 -27 -5 -7 -4 -21 1
-30 8 -13 12 -4 17 39 4 30 5 64 2 74 -3 13 -6 10 -8 -11z"/>
<path d="M4205 2067 c-9 -38 5 -112 19 -96 2 2 6 27 9 56 4 39 3 53 -8 57 -10
3 -17 -3 -20 -17z"/>
<path d="M3617 2073 c-4 -3 -7 -11 -7 -17 0 -6 5 -5 12 2 6 6 9 14 7 17 -3 3
-9 2 -12 -2z"/>
<path d="M3530 2039 c0 -5 -4 -8 -8 -5 -4 3 -9 -11 -9 -31 -1 -20 -5 -38 -10
-42 -23 -16 -7 -81 19 -81 6 0 6 6 -1 14 -8 9 -8 16 -2 20 5 4 7 23 4 43 -4
24 -3 34 4 30 7 -4 12 7 15 28 2 19 0 35 -4 35 -4 0 -8 -5 -8 -11z"/>
<path d="M3573 1984 c-8 -18 -9 -32 -3 -45 6 -10 10 -30 10 -44 0 -17 5 -25
13 -23 14 5 33 99 24 122 -9 24 -31 19 -44 -10z"/>
<path d="M4269 1873 c-7 -40 -5 -51 8 -46 10 4 11 0 4 -19 -13 -35 -10 -159 5
-188 12 -22 14 -22 20 -6 4 9 4 44 1 77 -4 48 -2 61 11 69 10 6 12 10 4 10 -9
0 -10 11 -6 40 5 28 3 40 -5 40 -7 0 -10 4 -7 9 3 5 -1 12 -10 15 -20 8 -24 8
-25 -1z"/>
<path d="M3907 1844 c-4 -4 -7 -17 -7 -28 0 -12 -8 -44 -18 -71 -23 -66 -20
-185 6 -185 4 0 8 8 9 18 0 9 8 69 16 132 14 105 12 152 -6 134z"/>
<path d="M4201 1824 c0 -11 3 -14 6 -6 3 7 2 16 -1 19 -3 4 -6 -2 -5 -13z"/>
<path d="M4424 1776 c-9 -39 6 -53 26 -26 15 20 16 26 5 37 -19 18 -24 16 -31
-11z"/>
<path d="M3650 1615 c0 -8 4 -15 9 -15 5 0 11 7 15 15 3 9 0 15 -9 15 -8 0
-15 -7 -15 -15z"/>
<path d="M4344 1479 c-3 -6 0 -17 8 -25 13 -13 16 -13 28 1 12 14 11 18 -1 26
-19 12 -26 11 -35 -2z"/>
<path d="M4223 1470 c-29 -12 -20 -37 12 -37 16 0 24 6 28 23 5 26 -4 28 -40
14z"/>
<path d="M4325 1370 c-8 -13 4 -32 16 -25 12 8 12 35 0 35 -6 0 -13 -4 -16
-10z"/>
</g>
</svg>
